<?xml version="1.0" encoding="UTF-8" standalone="no"?>
<svg
   width="200mm"
   height="150mm"
   viewBox="4.933968 21.583557 199.99996 149.99974"
   version="1.1"
   id="svg410"
   sodipodi:docname="badge.svg"
   inkscape:version="1.2.2 (b0a8486541, 2022-12-01)"
   xmlns:inkscape="http://www.inkscape.org/namespaces/inkscape"
   xmlns:sodipodi="http://sodipodi.sourceforge.net/DTD/sodipodi-0.dtd"
   xmlns="http://www.w3.org/2000/svg"
   xmlns:svg="http://www.w3.org/2000/svg">
  <defs
     id="defs414" />
  <sodipodi:namedview
     id="namedview412"
     pagecolor="#ffffff"
     bordercolor="#666666"
     borderopacity="1.0"
     inkscape:pageshadow="2"
     inkscape:pageopacity="0.0"
     inkscape:pagecheckerboard="0"
     inkscape:document-units="mm"
     showgrid="false"
     inkscape:zoom="1.4142136"
     inkscape:cx="223.44574"
     inkscape:cy="325.26912"
     inkscape:window-width="2560"
     inkscape:window-height="1411"
     inkscape:window-x="1920"
     inkscape:window-y="0"
     inkscape:window-maximized="1"
     inkscape:current-layer="svg410"
     inkscape:showpageshadow="2"
     inkscape:deskcolor="#d1d1d1" />
  <path
     id="rect2"
     style="fill:none;stroke:#ff0000;stroke-width:0.1;stroke-miterlimit:3.9932;stroke-dasharray:none;stroke-opacity:1"
     d="m 132.62928,74.938633 v 3.054076 H 73.726428 V 122.6277 H 135.36141 V 78.208199 h 0.53744 v -3.269566 z"
     inkscape:label="Screen and environmental sensor" />
  <path
     style="fill:none;stroke:#ff0000;stroke-width:0.1;stroke-miterlimit:3.9932;stroke-dasharray:none;stroke-opacity:1"
     d="m 160.61142,119.32598 7.48988,-2.07133 c 0.0649,-0.0179 0.12987,-0.0286 0.19409,-0.0332 0.0643,-0.004 0.12795,-0.002 0.19014,0.006 0.0622,0.008 0.12297,0.0225 0.18153,0.0425 0.0586,0.0199 0.11492,0.0455 0.16822,0.0763 0.0533,0.0308 0.10368,0.0668 0.15024,0.10748 0.0465,0.0408 0.0893,0.0862 0.12763,0.1359 0.0382,0.0497 0.0719,0.10379 0.10024,0.16167 0.0283,0.0578 0.0514,0.11959 0.0683,0.1847 l 0.002,0.007 0.002,0.007 0.002,0.007 0.002,0.007 0.002,0.007 0.002,0.007 0.002,0.007 0.002,0.007 c 0.0169,0.0651 0.0267,0.1305 0.0303,0.19521 0.003,0.0647 5.2e-4,0.12892 -0.008,0.19173 -0.009,0.0628 -0.024,0.12426 -0.0447,0.18356 -0.0206,0.0593 -0.0467,0.11646 -0.078,0.17062 -0.0313,0.0542 -0.0677,0.10544 -0.1087,0.15291 -0.0411,0.0476 -0.0867,0.0913 -0.1366,0.13052 -0.0498,0.0392 -0.10397,0.0739 -0.1618,0.10326 -0.0578,0.0294 -0.11936,0.0534 -0.18419,0.0714 l -7.48988,2.07132 c -0.0649,0.0179 -0.12986,0.0286 -0.19411,0.0332 -0.0642,0.004 -0.12792,0.002 -0.19013,-0.006 -0.0622,-0.008 -0.12297,-0.0225 -0.18153,-0.0425 -0.0586,-0.0199 -0.11491,-0.0455 -0.16821,-0.0763 -0.0533,-0.0308 -0.10369,-0.0668 -0.15023,-0.10748 -0.0466,-0.0407 -0.0894,-0.0862 -0.12764,-0.1359 -0.0382,-0.0497 -0.0719,-0.10379 -0.10023,-0.16167 -0.0283,-0.0578 -0.0514,-0.11959 -0.0683,-0.1847 l -0.002,-0.007 -0.002,-0.007 -0.002,-0.007 -0.002,-0.007 -0.002,-0.007 -0.002,-0.007 -0.002,-0.007 -0.002,-0.007 c -0.0169,-0.0651 -0.0266,-0.1305 -0.0303,-0.1952 -0.003,-0.0647 -5.2e-4,-0.12893 0.008,-0.19174 0.009,-0.0628 0.024,-0.12426 0.0447,-0.18356 0.0206,-0.0593 0.0467,-0.11646 0.078,-0.17062 0.0313,-0.0542 0.0677,-0.10544 0.1087,-0.1529 0.0411,-0.0476 0.0867,-0.0912 0.1366,-0.13052 0.0498,-0.0392 0.10397,-0.0739 0.16177,-0.10325 0.0578,-0.0294 0.11937,-0.0534 0.18421,-0.0714 z"
     id="path6"
     inkscape:label="Speaker grill 3" />
  <path
     style="fill:none;stroke:#ff0000;stroke-width:0.1;stroke-miterlimit:3.9932;stroke-dasharray:none;stroke-opacity:1"
     d="m 159.51184,116.52642 7.4899,-2.07133 c 0.0649,-0.0179 0.12985,-0.0286 0.19409,-0.0332 0.0642,-0.004 0.12794,-0.002 0.19014,0.006 0.0622,0.008 0.12295,0.0225 0.18152,0.0425 0.0586,0.0199 0.11491,0.0455 0.16821,0.0763 0.0533,0.0308 0.10368,0.0668 0.15024,0.10747 0.0466,0.0407 0.0894,0.0862 0.12762,0.13591 0.0382,0.0497 0.0719,0.10379 0.10024,0.16168 0.0283,0.0578 0.0514,0.11958 0.0683,0.18469 l 0.002,0.007 0.002,0.007 0.002,0.007 0.002,0.007 0.002,0.007 0.002,0.007 0.002,0.007 0.002,0.007 c 0.0169,0.0651 0.0266,0.1305 0.0303,0.19521 0.003,0.0647 5.2e-4,0.12892 -0.008,0.19173 -0.009,0.0628 -0.024,0.12426 -0.0447,0.18356 -0.0206,0.0593 -0.0467,0.11646 -0.0781,0.17062 -0.0313,0.0542 -0.0677,0.10544 -0.10869,0.15291 -0.0411,0.0476 -0.0867,0.0913 -0.1366,0.13051 -0.0498,0.0392 -0.10397,0.0739 -0.16179,0.10326 -0.0578,0.0294 -0.11935,0.0534 -0.18419,0.0714 l -7.4899,2.07133 c -0.0649,0.0179 -0.12985,0.0286 -0.1941,0.0332 -0.0643,0.004 -0.12792,0.002 -0.19013,-0.006 -0.0622,-0.008 -0.12295,-0.0225 -0.18152,-0.0425 -0.0586,-0.0199 -0.11491,-0.0455 -0.16821,-0.0763 -0.0533,-0.0308 -0.1037,-0.0668 -0.15024,-0.10749 -0.0465,-0.0408 -0.0893,-0.0862 -0.12762,-0.1359 -0.0382,-0.0497 -0.0719,-0.10379 -0.10024,-0.16166 -0.0283,-0.0578 -0.0514,-0.1196 -0.0683,-0.1847 l -0.002,-0.007 -0.002,-0.007 -0.002,-0.007 -0.002,-0.007 -0.002,-0.007 -0.002,-0.007 -0.002,-0.007 -0.002,-0.007 c -0.0169,-0.0651 -0.0267,-0.1305 -0.0303,-0.1952 -0.003,-0.0647 -5.2e-4,-0.12893 0.008,-0.19174 0.009,-0.0628 0.024,-0.12426 0.0447,-0.18357 0.0206,-0.0593 0.0467,-0.11645 0.078,-0.17061 0.0313,-0.0542 0.0677,-0.10543 0.10871,-0.15292 0.0411,-0.0475 0.0867,-0.0912 0.13659,-0.13052 0.0498,-0.0392 0.10398,-0.0739 0.16178,-0.10325 0.0578,-0.0294 0.11937,-0.0534 0.1842,-0.0714 z"
     id="path8"
     inkscape:label="Speaker grill 2" />
  <path
     style="fill:none;stroke:#ff0000;stroke-width:0.1;stroke-miterlimit:3.9932;stroke-dasharray:none;stroke-opacity:1"
     d="m 158.41176,113.72644 7.48988,-2.07132 c 0.0649,-0.0179 0.1298,-0.0288 0.19409,-0.0333 0.0643,-0.004 0.12793,-0.002 0.19014,0.006 0.0623,0.008 0.12295,0.0225 0.1815,0.0425 0.0586,0.0199 0.11492,0.0455 0.16823,0.0763 0.0533,0.0308 0.10368,0.0668 0.15022,0.10748 0.0466,0.0407 0.0894,0.0862 0.12764,0.13591 0.0382,0.0498 0.0719,0.10379 0.10024,0.16167 0.0284,0.0579 0.0514,0.11959 0.0683,0.1847 l 0.002,0.007 0.002,0.006 0.002,0.007 0.002,0.007 0.002,0.007 0.002,0.007 0.002,0.007 0.002,0.006 c 0.0169,0.0651 0.0266,0.1305 0.0303,0.1952 0.003,0.0648 5.1e-4,0.12893 -0.008,0.19174 -0.009,0.0628 -0.024,0.12426 -0.0447,0.18356 -0.0206,0.0593 -0.0467,0.11642 -0.078,0.17061 -0.0313,0.0542 -0.0677,0.10542 -0.1087,0.15291 -0.0411,0.0475 -0.0867,0.0912 -0.1366,0.13047 -0.0498,0.0392 -0.10396,0.0739 -0.16177,0.10329 -0.0578,0.0294 -0.11936,0.0534 -0.18419,0.0714 l -7.49291,2.07116 c -0.0649,0.018 -0.12986,0.0287 -0.1941,0.0332 -0.0642,0.004 -0.12793,0.002 -0.19014,-0.006 -0.0622,-0.008 -0.12297,-0.0225 -0.18151,-0.0425 -0.0586,-0.0199 -0.11491,-0.0455 -0.16821,-0.0763 -0.0533,-0.0308 -0.10368,-0.0668 -0.15024,-0.10748 -0.0465,-0.0407 -0.0893,-0.0862 -0.12764,-0.1359 -0.0382,-0.0498 -0.0719,-0.10379 -0.10023,-0.16167 -0.0284,-0.0579 -0.0514,-0.11959 -0.0683,-0.1847 l -0.002,-0.007 -0.002,-0.007 -0.002,-0.006 -0.002,-0.007 -0.002,-0.007 -0.002,-0.007 -0.002,-0.007 -0.002,-0.006 c -0.0169,-0.0651 -0.0266,-0.1305 -0.0303,-0.1952 -0.003,-0.0648 -5.2e-4,-0.12893 0.008,-0.19174 0.009,-0.0628 0.024,-0.12426 0.0447,-0.18356 0.0206,-0.0593 0.0467,-0.11642 0.0781,-0.17061 0.0313,-0.0542 0.0677,-0.10542 0.10868,-0.15292 0.0411,-0.0475 0.0867,-0.0913 0.13661,-0.13047 0.0498,-0.0392 0.10396,-0.0739 0.16177,-0.10328 0.0578,-0.0294 0.11936,-0.0534 0.18421,-0.0714 z"
     id="path10"
     inkscape:label="Speaker grill 1" />
  <path
     id="circle12"
     style="fill:none;stroke:#ff0000;stroke-width:0.1;stroke-miterlimit:3.9932"
     d="m 41.953926,86.513275 a 1.5,1.5 0 0 1 -1.5,1.5 1.5,1.5 0 0 1 -1.5,-1.5 1.5,1.5 0 0 1 1.5,-1.5 1.5,1.5 0 0 1 1.5,1.5 z"
     inkscape:label="Left screwhole" />
  <path
     id="circle18"
     style="fill:none;stroke:#ff0000;stroke-width:0.1;stroke-miterlimit:3.9932"
     d="m 67.735913,62.042271 a 1.252995,1.252995 0 0 1 -1.252995,1.252995 1.252995,1.252995 0 0 1 -1.252995,-1.252995 1.252995,1.252995 0 0 1 1.252995,-1.252995 1.252995,1.252995 0 0 1 1.252995,1.252995 z"
     inkscape:label="Kite led 3" />
  <path
     id="circle44"
     style="fill:none;stroke:#ff0000;stroke-width:0.1;stroke-miterlimit:3.9932"
     d="M 64.22691,70.52327 A 1.252995,1.252995 0 0 1 62.973915,71.776265 1.252995,1.252995 0 0 1 61.72092,70.52327 1.252995,1.252995 0 0 1 62.973915,69.270275 1.252995,1.252995 0 0 1 64.22691,70.52327 Z"
     inkscape:label="Kite led 2" />
  <path
     id="circle46"
     style="fill:none;stroke:#ff0000;stroke-width:0.1;stroke-miterlimit:3.9932"
     d="m 88.308911,70.505272 a 1.252995,1.252995 0 0 1 -1.252995,1.252995 1.252995,1.252995 0 0 1 -1.252995,-1.252995 1.252995,1.252995 0 0 1 1.252995,-1.252995 1.252995,1.252995 0 0 1 1.252995,1.252995 z"
     inkscape:label="Kite led 1" />
  <path
     id="circle48"
     style="fill:none;stroke:#ff0000;stroke-width:0.1;stroke-miterlimit:3.9932"
     d="m 169.45393,86.513275 a 1.5,1.5 0 0 1 -1.5,1.5 1.5,1.5 0 0 1 -1.5,-1.5 1.5,1.5 0 0 1 1.5,-1.5 1.5,1.5 0 0 1 1.5,1.5 z"
     inkscape:label="Right screwhole" />
  <path
     id="rect50"
     style="fill:none;stroke:#ff0000;stroke-width:0.1;stroke-miterlimit:3.9932"
     d="m 136.16565,82.93499 h 5.60457 v 5.604567 h -5.60457 z"
     inkscape:label="FPGA LED" />
  <path
     id="rect54"
     style="fill:none;stroke:#ff0000;stroke-width:0.1;stroke-miterlimit:3.9932"
     d="m 146.48372,95.3591 h 6.59641 v 7.19636 h -6.59641 z"
     inkscape:label="B button" />
  <path
     id="rect56"
     style="fill:none;stroke:#ff0000;stroke-width:0.1;stroke-miterlimit:3.9932;stroke-dasharray:none;stroke-opacity:1"
     d="m 164.40201,99.338957 0.0119,0.09165 0.0119,0.08314 0.0119,0.08314 0.0119,0.08314 0.0119,0.08314 0.0119,0.08314 0.0119,0.08314 0.0119,0.08314 0.0119,0.0831 0.0119,0.0831 0.0119,0.0831 0.0119,0.0832 c 0.19404,1.35799 0.38808,2.71598 0.58211,4.07398 l 0.0119,0.0831 0.0119,0.0831 0.0119,0.0831 0.0119,0.0831 0.0119,0.0831 0.0119,0.0831 0.0119,0.0832 0.0119,0.0831 0.0119,0.0831 0.0119,0.0831 0.0119,0.0832 0.0119,0.0831 c 0.0996,0.6965 0.74011,1.17702 1.43661,1.07745 l 3.02927,-0.43305 c 0.6965,-0.0996 1.17702,-0.74062 1.07745,-1.43712 l -1.90479,-13.324249 c -0.0902,-0.631203 -0.62494,-1.08545 -1.24282,-1.09089 -0.0639,-5.29e-4 -0.12849,0.0041 -0.19379,0.01344 l -3.02927,0.433048 c -0.6965,0.09957 -1.17702,0.740106 -1.07745,1.436605 l 0.006,0.04186 h -6.21926 v 7.196458 l 6.5965,1.6e-5 z"
     sodipodi:nodetypes="ccccccccccccccccccccccccccsscsssscccccc"
     inkscape:label="A button and pmod" />
  <path
     id="rect58"
     style="fill:none;stroke:#ff0000;stroke-width:0.1;stroke-miterlimit:3.9932"
     d="m 80.745735,123.81207 h 7.196357 v 6.59642 h -7.196357 z"
     inkscape:label="Home button" />
  <path
     id="rect60"
     style="fill:none;stroke:#ff0000;stroke-width:0.1;stroke-miterlimit:3.9932"
     d="m 93.745735,123.81207 h 7.196355 v 6.59642 h -7.196355 z"
     inkscape:label="Menu button" />
  <path
     id="rect62"
     style="fill:none;stroke:#ff0000;stroke-width:0.1;stroke-miterlimit:3.9932"
     d="m 108.74574,123.81207 h 7.19636 v 6.59642 h -7.19636 z"
     inkscape:label="Select button" />
  <path
     id="rect64"
     style="fill:none;stroke:#ff0000;stroke-width:0.1;stroke-miterlimit:3.9932"
     d="m 121.74574,123.81207 h 7.19636 v 6.59642 h -7.19636 z"
     inkscape:label="Start button" />
  <path
     id="rect66"
     style="fill:none;stroke:#ff0000;stroke-width:0.1;stroke-miterlimit:3.9932"
     transform="matrix(0.70664863,-0.70756463,0.70664863,0.70756463,0,0)"
     d="m -35.740837,102.79431 h 8.118125 v 8.11813 h -8.118125 z"
     inkscape:label="Joystick" />
  <path
     id="path68"
     style="fill:none;stroke:#ff0000;stroke-width:0.1;stroke-miterlimit:3.9932;stroke-dasharray:none;stroke-opacity:1"
     d="m 71.531644,53.426021 c 0.01929,0.03551 0.03691,0.07205 0.05276,0.109529 0.01585,0.03748 0.02993,0.07588 0.04213,0.11512 0.0122,0.03924 0.02253,0.0793 0.03088,0.120081 0.0084,0.04078 0.01471,0.08229 0.01899,0.12441 0.0043,0.04212 0.0065,0.08486 0.0065,0.128112 0,0.04325 -0.0022,0.08599 -0.0065,0.128112 -0.0043,0.04212 -0.01064,0.08363 -0.01899,0.12441 -0.0084,0.04078 -0.01867,0.08084 -0.03088,0.120081 -0.0122,0.03923 -0.02628,0.07764 -0.04213,0.11512 -0.01585,0.03748 -0.03347,0.07402 -0.05276,0.109529 -0.01929,0.03551 -0.04024,0.06998 -0.06276,0.10331 -0.02252,0.03333 -0.0466,0.06552 -0.07213,0.09646 -0.02554,0.03094 -0.05253,0.06064 -0.08087,0.08898 -0.02834,0.02834 -0.05804,0.05533 -0.08898,0.08087 -0.03094,0.02553 -0.06313,0.04961 -0.09646,0.07213 -0.03333,0.02252 -0.0678,0.04347 -0.10331,0.06276 -0.03551,0.01929 -0.07205,0.03691 -0.109529,0.05276 -0.03748,0.01585 -0.07588,0.02993 -0.11512,0.04213 -0.03923,0.0122 -0.0793,0.02253 -0.120081,0.03088 -0.04078,0.0084 -0.08229,0.01471 -0.124411,0.01899 -0.04212,0.0043 -0.08486,0.0065 -0.128111,0.0065 -0.04325,0 -0.08599,-0.0022 -0.128112,-0.0065 -0.04212,-0.0043 -0.08363,-0.01064 -0.12441,-0.01899 -0.04078,-0.0084 -0.08085,-0.01867 -0.120081,-0.03088 -0.03923,-0.0122 -0.07764,-0.02628 -0.11512,-0.04213 -0.03748,-0.01585 -0.07402,-0.03347 -0.109529,-0.05276 -0.03551,-0.01929 -0.06998,-0.04024 -0.10331,-0.06276 -0.03333,-0.02252 -0.06552,-0.0466 -0.09646,-0.07213 -0.03094,-0.02554 -0.06064,-0.05253 -0.08898,-0.08087 -0.02834,-0.02834 -0.05533,-0.05804 -0.08087,-0.08898 -0.02553,-0.03094 -0.04961,-0.06313 -0.07213,-0.09646 -0.02252,-0.03333 -0.04347,-0.0678 -0.06276,-0.10331 -0.01929,-0.03551 -0.03691,-0.07205 -0.05276,-0.109529 -0.01585,-0.03748 -0.02993,-0.07588 -0.04213,-0.11512 -0.0122,-0.03923 -0.02253,-0.0793 -0.03088,-0.120081 -0.0084,-0.04078 -0.01471,-0.08229 -0.01899,-0.12441 -0.0043,-0.04212 -0.0065,-0.08486 -0.0065,-0.128112 0,-0.04325 0.0022,-0.08599 0.0065,-0.128112 0.0043,-0.04212 0.01064,-0.08363 -0.204594,-0.171212 -0.130796,-0.04328 -0.367584,-0.0058 -0.367584,-0.0058 l -0.758301,0.17419 c -3.435638,0.677076 -6.856483,1.542239 -10.291698,2.16581 l -0.014,-0.09238 -0.0132,-0.64077 -0.0073,-0.76093 -0.0655,-0.06554 -0.0828,-0.06047 -0.0462,-0.009 -0.053,0.0062 -0.137501,0.06069 -0.1975,0.12998 -0.276699,0.19297 -0.240299,-0.25121 -0.567501,-0.57889 -0.1026,-0.0826 -0.058,-0.0157 -0.105099,0.01758 -0.0476,0.03331 -0.0517,0.05971 -0.1381,0.22885 -0.221799,0.42512 -0.363524,0.610352 c -0.107292,0.261961 -0.0685,0.333188 -0.0368,0.408141 h 3e-6 c 0.0317,0.07495 0.05632,0.153633 0.07301,0.2352 0.01669,0.08157 0.02546,0.166021 0.02546,0.252522 0,0.0865 -0.0088,0.170956 -0.02546,0.252523 -0.01669,0.08157 -0.04131,0.160247 -0.07301,0.2352 -0.0317,0.07495 -0.07049,0.14618 -0.115525,0.212839 -0.04503,0.06666 -0.09632,0.128753 -0.153002,0.18544 -0.05669,0.05669 -0.11878,0.107968 -0.18544,0.153002 -0.06666,0.04503 -0.137886,0.08382 -0.212839,0.115526 -0.07495,0.0317 -0.153634,0.05632 -0.357738,0.379042 l -0.268136,0.673833 -0.147499,0.3763 -0.06,0.1989 0.0145,0.0656 0.0364,0.0545 0.1611,0.071 0.3195,0.1038 0.462401,0.1566 0.0441,0.190601 0.0688,0.4392 0.0983,0.6736 0.0036,0.091 -0.3548,0.1123 -0.3402,0.1553 -0.320299,0.196299 -0.295401,0.2351 -0.274,0.2891 -0.304501,0.3822 -0.2873,0.4116 -0.222799,0.3771 -0.142,0.3295 -0.1201,0.3841 -0.0337,0.0878 -0.0501,0.036 -0.3167,0.0546 -0.243999,0.0488 -0.2384,0.0659 -0.213899,0.0768 -0.170201,0.0815 -0.1784,0.116301 -0.1937,0.149401 -0.4012,0.365999 -0.3649,0.401501 -0.148501,0.193799 -0.115,0.178401 -0.175899,0.3546 -0.117201,0.355301 -0.0653,0.382601 -0.0203,0.4366 0.0097,0.292801 0.0261,0.2824 0.0422,0.2707 0.0581,0.2577 0.0736,0.243601 0.0888,0.228201 0.1038,0.2115 0.1183,0.193701 0.140899,0.1922 0.1472,0.172701 0.1539,0.153499 0.1611,0.134701 0.1687,0.115999 0.177,0.0977 0.185499,0.0797 0.194599,0.062 0.268499,0.053 0.314501,0.0325 0.345301,0.0107 0.360599,-0.0125 0.422301,-0.0183 -0.1857,0.4187 -0.202699,0.4577 -0.1892,0.482201 -0.174299,0.501301 -0.157801,0.5153 -0.139999,0.524001 -0.120501,0.527399 -0.0997,0.525699 -0.0772,0.518601 -0.0495,0.430299 -0.0297,0.387501 -0.0119,0.399201 0.0037,0.465099 0.0032,0.577 -0.0108,0.0854 -0.0215,0.0111 -0.420999,-0.1443 -0.3909,-0.1033 -0.3031,-0.0418 -0.472401,0.0018 -0.58,0.0369 -0.594999,0.0787 -0.612801,0.120899 -0.633301,0.164 -0.7864,0.2257 -0.4475,0.135401 -0.454099,0.164499 -0.454701,0.1911 -0.4495,0.215299 -0.376,0.208401 -0.3299,0.2271 -0.3483,0.296101 -0.4313,0.415199 -0.4452,0.468899 -0.544601,0.6143 -0.6286,0.742599 -0.6971,0.853901 -0.62532,0.757599 -0.25121,0.280701 -0.2321,0.2364 -0.229379,0.207802 -0.24302,0.195202 -0.59254,0.415699 -0.4973,0.3242 -0.45293,0.2756 -0.45567,0.2552 -0.50551,0.262699 -0.43819,0.226101 -0.30133,0.179 -0.20918,0.161202 -0.16173,0.172798 -0.26929,0.367199 -0.2692,0.433701 -0.26801,0.4976 -0.2657,0.5592 -0.26229,0.618302 -0.25777,0.674801 -0.25215,0.728901 -0.24539,0.780498 -0.29621,1.0387 -0.29924,1.143601 -0.29471,1.213901 -0.28264,1.249901 -0.26301,1.2514 -0.23583,1.218601 -0.20111,1.1512 -0.15882,1.049499 -0.15655,1.015805 -0.16702,1.0601 -0.136986,1.1352 -0.12606,1.3947 -0.134247,1.8384 -0.133343,2.0099 -0.07873,1.4597 -0.04187,1.3287 -0.02276,1.6167 -0.0032,1.2667 0.01826,1.0712 0.04079,0.927 0.06434,0.8346 0.06553,1.0959 0.07255,1.2219 0.09687,1.1305 0.124343,1.05741 0.154976,1.0028 0.188767,0.96669 0.225715,0.9488 0.26582,0.9496 0.30908,0.9687 0.28113,0.7807 0.29957,0.7521 0.29683,0.6728 0.27295,0.5432 0.25354,0.4335 0.27574,0.42389 0.28324,0.3939 0.27607,0.3433 0.190421,0.2031 0.23663,0.22651 0.570069,0.4897 0.62945,0.48149 0.60523,0.4051 0.68447,0.4369 1.19622,0.7602 1.04468,0.6114 0.476169,0.25589 0.451041,0.2258 0.430299,0.1982 0.413701,0.173 0.599499,0.2154 0.7444,0.236 0.8326,0.2387 0.8636,0.2237 0.9889,0.2253 1.3958,0.25531 1.762101,0.32399 1.8059,0.3204 1.057699,0.1817 0.730801,0.1441 0.6147,0.1524 0.709601,0.20629 1.0124,0.3194 0.471799,0.1711 0.520501,0.2085 1.402599,0.61991 2.2432,1.04029 0.873699,0.39981 0.709601,0.3056 0.651501,0.2551 0.699699,0.2483 0.492599,0.1601 0.490899,0.1438 1.248298,0.315 1.5219,0.3823 0.981301,0.2567 1.1044,0.2693 2.467999,0.553 2.630401,0.53321 2.573102,0.4666 1.4309,0.23989 0.8983,0.13881 0.632199,0.076 0.632099,0.0514 1.7803,0.1238 1.634701,0.1201 2.024299,0.1457 1.151402,0.071 0.8838,0.0273 2.052502,0.0478 3.128399,0.0942 2.554401,0.0368 7.253805,0.0396 6.4551,0.051 2.4794,0.0619 2.0971,0.0509 3.4405,0.004 2.7088,-0.014 1.6711,-0.0333 1.97329,-0.0546 0.6445,-0.0191 0.6475,-0.041 0.6551,-0.0628 0.667,-0.0846 1.4212,-0.1939 0.97081,-0.101 1.9168,-0.1834 1.6436,-0.18071 3.52501,-0.4933 3.65499,-0.5371 1.14901,-0.1859 0.845,-0.15219 0.656,-0.14061 0.58699,-0.1511 1.99401,-0.5193 2.58899,-0.653 1.777,-0.4274 1.64601,-0.3591 0.842,-0.18789 0.588,-0.14701 1.045,-0.319 0.823,-0.2781 3.27999,-1.1432 1.47001,-0.5324 1.81799,-0.69091 3.085,-1.18419 2.416,-0.8838 0.40101,-0.1332 0.307,-0.0834 0.291,-0.0506 0.35601,-0.035 0.311,-0.0353 0.34801,-0.0573 0.813,-0.1818 0.97901,-0.2739 1.15699,-0.36911 1.16201,-0.4039 0.966,-0.37519 0.845,-0.378 0.802,-0.41211 0.553,-0.32019 0.546,-0.3502 0.532,-0.374 0.50999,-0.3919 0.482,-0.4034 0.44501,-0.40889 0.39999,-0.40831 0.34801,-0.40139 0.31799,-0.4051 0.287,-0.391 0.26,-0.3851 0.237,-0.3875 0.22099,-0.3982 0.20799,-0.4174 0.20101,-0.4447 0.197,-0.4804 0.282,-0.7375 0.18201,-0.5637 0.117,-0.522 0.089,-0.61251 0.14599,-1.2497 0.069,-0.99299 0.029,-1.1254 0.012,-1.7008 -0.008,-2.0981 -0.026,-2.3173 -0.051,-3.85189 -0.033,-1.6829 -0.054,-1.4263 -0.11999,-2.44661 -0.106,-2.1162 -0.10201,-1.7089 -0.10899,-1.420197 -0.12399,-1.249901 -0.099,-0.808601 -0.11901,-0.758702 -0.147,-0.764198 -0.185,-0.825001 -0.302,-1.288898 -0.34801,-1.440399 -0.15899,-0.5845 -0.159,-0.52 -0.164,-0.474899 -0.175,-0.449402 -0.193,-0.443199 -0.218,-0.456501 -0.19299,-0.376099 -0.191,-0.342701 -0.198,-0.319099 -0.21099,-0.3051 -0.23101,-0.300899 -0.25799,-0.306301 -0.62601,-0.6675 -0.483,-0.461201 -0.519,-0.440399 -0.61099,-0.462898 -0.757,-0.528702 -1.13401,-0.742599 -0.45799,-0.272599 -0.407,-0.217701 -0.37199,-0.1707 -0.35401,-0.131901 -0.35099,-0.101001 -0.36501,-0.0783 -0.324,-0.0427 -0.37101,-0.0229 -0.367,-0.001 -0.31,0.0229 -0.26199,0.0364 -0.233,-0.466099 -0.20101,-0.3787 -0.195,-0.311199 -0.21401,-0.2757 -0.253,-0.272201 -0.342,-0.314301 -0.35899,-0.277302 -0.366,-0.2337 -0.364,-0.1832 -0.412,-0.146702 -0.51,-0.1423 -0.53,-0.117 -0.47,-0.071 -0.28799,-0.0364 0.091,-0.171101 0.138,-0.258301 0.125,-0.2961 0.11,-0.324301 0.093,-0.3428 0.073,-0.351601 0.051,-0.350901 0.026,-0.3405 -0.001,-0.3204 -0.018,-0.249799 -0.035,-0.227101 -0.051,-0.208 -0.071,-0.192101 -0.09,-0.1797 -0.112,-0.170601 -0.134,-0.164801 -0.159,-0.1626 -0.253,-0.203899 -0.29401,-0.177 -0.309,-0.1367 -0.29801,-0.0831 -0.171,-0.0328 -0.029,-0.232999 -0.106,-0.6024 -0.144,-0.5308 -0.086,-0.2391 -0.097,-0.222 -0.106,-0.205099 -0.116,-0.1884 -0.149,-0.187201 -0.20599,-0.2129 -0.22901,-0.2066 -0.22099,-0.1688 -0.506,-0.3184 -0.49899,-0.254101 -0.482,-0.187299 -0.23199,-0.0677 -0.225,-0.0499 -0.23303,-0.0401 c -16.40018,-0.0068 -13.8576,0.781525 -13.981,-13.631102 l 4e-5,-2e-6 -0.018,-0.1092 -0.087,-0.56069 -0.068,-0.41693 -0.072,-0.35719 -0.087,-0.3333 -0.108,-0.34525 -0.149,-0.4155 -0.167,-0.3957 -0.186,-0.37761 -0.206,-0.36124 -0.227,-0.34655 -0.248,-0.33359 -0.272,-0.32233 -0.296,-0.31277 -0.28299,-0.26776 -0.284,-0.23871 -0.287,-0.21063 -0.292,-0.183539 -0.29901,-0.157431 -0.306,-0.13229 -0.317,-0.10815 -0.328,-0.08497 -0.161,-0.03004 -0.17601,-0.0164 -0.65699,-0.0082 -0.62301,0.0095 -0.236,0.0191 -0.20899,0.03335 -0.199,0.05109 -0.205,0.07234 -0.49801,0.22242 -0.34999,0.19308 -0.311,0.22379 -0.273,0.25382 -0.23101,0.283181 -0.15599,0.21845 -0.058,-0.10922 -0.20401,-0.32924 -0.25199,-0.34426 -0.29001,-0.34427 -0.31404,-0.329249 -0.262,-0.24672 -0.242,-0.20611 -0.254,-0.19176 -0.297,-0.20372 -0.408,-0.25176 -0.432,-0.2311 -0.457,-0.21063 -0.483,-0.19032 -0.509,-0.17018 -0.53511,-0.15021 -0.56099,-0.13042 -0.58751,-0.11079 -0.4725,-0.05951 -0.47469,-0.02338 -0.47161,0.01204 -0.46299,0.04673 -0.44931,0.08069 -0.43,0.11393 -0.4056,0.14644 -0.3758,0.17822 -0.1775,0.1019 -0.1747,0.11792 -0.456,0.36999 -0.2293,0.18932 -0.1439,0.09102 -0.0564,0.01548 -0.0548,-9.2e-4 -0.1309,-0.04005 -0.2322,-0.07524 -0.2978,-0.07886 -0.7256,-0.15581 -0.7878,-0.13192 -0.7163,-0.08245 -0.8852,-0.04024 -0.906,0.01044 -0.92759,0.0613 -0.95021,0.11232 -0.9738,0.16353 -0.9983,0.21489 -1.02369,0.26644 -1.05001,0.31814 -1.0267,0.29853 -1.727,0.47764 -1.639,0.50629 -1.6853,0.57866 -1.8662,0.694711 -1.24771,0.48632 -0.9951,0.41157 -0.995,0.445039 -1.2477,0.58669 -1.492702,0.70266 -1.572799,0.74635 -1.2957,0.613 -0.998001,0.4246 -1.035202,0.4013 -0.897599,0.305001 -0.8232,0.228599 -0.812,0.1719 -0.501,0.0854 -0.407798,0.0539 -0.392102,0.0307 -0.453899,0.0157 -0.629898,0.0145 0.280399,-0.1748 0.366402,-0.2326 0.337501,-0.2364 0.308602,-0.2403 0.279899,-0.244099 0.251301,-0.248101 0.222599,-0.252 0.1941,-0.255999 0.165798,-0.26015 0.258499,-0.43689 0.194599,-0.34541 0.1772,-0.35907 0.155999,-0.36454 0.131099,-0.3618 0.104817,-0.36664 0.071,-0.36225 0.0371,-0.36541 0.0029,-0.37611 -0.0317,-0.39438 -0.0663,-0.42019 -0.101303,-0.45356 -0.136596,-0.49448 -0.100003,-0.30836 -0.109699,-0.28059 -0.1245,-0.26087 -0.1446,-0.24923 -0.1698,-0.24565 -0.200298,-0.25012 -0.235901,-0.26268 -0.276901,-0.28328 -0.486802,-0.46972 -0.4179,-0.35537 -0.423298,-0.29871 -0.503299,-0.29974 -0.5914,-0.321069 -0.251,-0.117954 -0.2439,-0.09799 -0.254002,-0.08433 -0.281097,-0.07699 -0.712303,-0.157234 -0.522499,-0.100633 -0.440899,-0.07095 -0.406201,-0.04705 -0.417999,-0.02895 -0.402302,-0.01185 -0.416401,0.0051 -0.428398,0.02159 -0.438499,0.03762 -0.8988,0.121498 -0.914402,0.18012 -0.9138,0.235075 -0.896697,0.286359 -0.863503,0.33398 -0.4142,0.18369 -0.3997,0.19423 -0.632099,0.3441 -0.5634,0.3581 -0.502701,0.37653 -0.449898,0.39942 -0.884701,0.95753 7.2e-5,2.68e-4 -0.0533,-0.0082 -0.056,0.0082 -1.8713,0.77549 -0.103538,0.04323 -0.103537,0.04323 -0.103538,0.04323 -0.103537,0.04323 -0.103538,0.04323 -0.103537,0.04323 -0.103538,0.04323 -0.103538,0.04323 -0.103537,0.04323 -0.103538,0.04323 -0.103537,0.04323 -0.103538,0.04323 -0.103537,0.04323 -0.103538,0.04323 -0.103537,0.04323 c -0.0834,0.0551 -0.195731,0.08126 -0.250188,0.165298 -0.12413,0.155396 -0.10318,0.189867 -0.08389,0.225376 z"
     sodipodi:nodetypes="sssccssccssssssssssssssssssssscssssccssccccccccccccccccccccccccsssscsscssccccccccccccccccccccccccccccccccccccccccccccccccccccccccccccccccccccccccccccccccccccccccccccccccccccccccccccccccccccccccccccccccccccccccccccccccccccccccccccccccccccccccccccccccccccccccccccccccccccccccccccccccccccccccccccccccccccccccccccccccccccccccccccccccccccccccccccccccccccccccccccccccccccccccccccccccccccccccccccccccccccccccccccccccccccccccccccccccccccccccccccccccccccccccccccccccccccccccccccccccccccccccccccccccccccccccccccccccccccccccccccccccccccccccccccccccccccccccccccccccccccccccccccccccccccccccccccccccccccccccccccccccccccccccccccccccccccccccccccccccccccccccs"
     inkscape:label="Outline" />
</svg>
